# xmcd CD database file
#
# Track frame offsets:
#	150
#	18798
#	34221
#	47919
#	61242
#	77940
#	94413
#	110811
#	123909
#	135507
#
# Disc length: 1995 seconds
#
# Revision: 0
# Processed by: cddbd v1.5.2PL0 Copyright (c) Steve Scherf et al.
# Submitted via: CDex 1.70beta2
#
DISCID=8507c90a
DTITLE=Paycheque, Johnny - USA - Cty. - Sunday Morning Coming Down
DYEAR=1900
DGENRE=Country
TTITLE0=Turning off a Memory with Merle Haggard
TTITLE1=I've got a Yearning
TTITLE2=Carolyn
TTITLE3=I'll leave the bottle on the Bar
TTITLE4=All night lady
TTITLE5=I can't hold myself in line
TTITLE6=Yesterday's news just hit home today
TTITLE7=You don't have very far to go
TTITLE8=No more you and me
TTITLE9=Someone told my Story
EXTD=
EXTT0=
EXTT1=
EXTT2=
EXTT3=
EXTT4=
EXTT5=
EXTT6=
EXTT7=
EXTT8=
EXTT9=
PLAYORDER=
